<svg width="800" height="800" viewBox="0 0 358 364" fill="none" xmlns="http://www.w3.org/2000/svg">
  <g>
    <!-- Caminho 1 -->
    <path d="M35.43,218.33c4.01,22.75,15.3,41.45,29.93,58.34,31.65,38.72,77.73,58.52,128.46,53.71,44.96-4.14,87.71-31.45,111.78-72.27,26-20.69,39.54-48.61,48.02-82.07,4.74,68.93-36.57,133.17-95.83,164.62-56.31,30.03-124.26,25.54-176.24-11.33-33.99-23.59-59.01-58.03-71.15-97.73-6.65-22.7-1.74-44.91,7.91-66.18,21.66-43.33,63.67-69.98,112.44-74.56l162.03-.16-47.83,71.25c-19.92,24.67-44.44,43.72-74.3,59.99l68.48-101.56-109.52-.09c-24.29,3.31-47.17,10.01-64.66,26.39-20.35,18.55-32.4,43.53-29.5,71.64Z" 
      stroke="#fe615e" stroke-width="2" fill="rgba(254, 97, 94, 0)" 
      stroke-dasharray="2000" stroke-dashoffset="2000">
      <animate attributeName="stroke-dashoffset" from="2000" to="0" dur="1.5s" begin="0s" fill="freeze" />
      <animate attributeName="fill" from="rgba(254, 97, 94, 0)" to="rgba(254, 97, 94, 1)" dur="0.6s" begin="1.2s" fill="freeze" />
      <animate attributeName="stroke-width" from="2" to="0" dur="0.4s" begin="1.4s" fill="freeze" />
    </path>

    <!-- Caminho 2 -->
    <path d="M187.54,140.84l-68.89,102.67,103.39-.1c36.22-2.48,69.11-17.49,88.06-48.03,17.04-26.27,16.07-57.08-.01-83.39-25.58-46.5-72.24-77.73-124.96-78.66-53.92-2.83-104.31,24.08-132.11,70.69-27.52,21.15-42.43,51.66-48.66,86.31C-.22,140.43,20.71,91.06,55.35,56.11,120.15-10.49,223.96-14.3,293.37,47.37c26.63,23.18,46.09,54.41,55.28,89.19,4.58,22.99-1.28,44.75-11.76,65.22-25.23,44.83-72.08,70.84-123.46,70.84l-148.81.77,53.7-79.18c18.92-22.29,42.86-39.82,69.23-53.36Z" 
      stroke="#fe615e" stroke-width="2" fill="rgba(254, 97, 94, 0)" 
      stroke-dasharray="2000" stroke-dashoffset="2000">
      <animate attributeName="stroke-dashoffset" from="2000" to="0" dur="1.5s" begin="0.15s" fill="freeze" />
      <animate attributeName="fill" from="rgba(254, 97, 94, 0)" to="rgba(254, 97, 94, 1)" dur="0.6s" begin="1.35s" fill="freeze" />
      <animate attributeName="stroke-width" from="2" to="0" dur="0.4s" begin="1.55s" fill="freeze" />
    </path>
  </g>
</svg>
