<?xml version="1.0" encoding="UTF-8"?>
<svg id="Camada_1" data-name="Camada 1" xmlns="http://www.w3.org/2000/svg" viewBox="0 0 358 364">
  <defs>
    <style>
      .cls-1 {
        fill: #fff;
      }
    </style>
  </defs>
  <path class="cls-1" d="M0,364V0h358v364H0ZM187.54,140.84c-26.37,13.54-50.3,31.06-69.23,53.36l-53.7,79.18,148.81-.77c51.38,0,98.23-26.01,123.46-70.84,10.48-20.47,16.34-42.23,11.76-65.22-9.19-34.77-28.65-66-55.28-89.19C223.96-14.3,120.15-10.49,55.35,56.11,20.71,91.06-.22,140.43,4.36,190.33c6.23-34.65,21.14-65.16,48.66-86.31,27.8-46.61,78.19-73.52,132.11-70.69,52.71.93,99.37,32.16,124.96,78.66,16.08,26.31,17.05,57.13.01,83.39-18.94,30.54-51.83,45.55-88.06,48.03l-103.39.1,68.89-102.67ZM35.43,218.33c-2.9-28.11,9.16-53.09,29.5-71.64,17.5-16.38,40.38-23.08,64.66-26.39l109.52.09-68.48,101.56c29.86-16.26,54.39-35.32,74.3-59.99l47.83-71.25-162.03.16c-48.77,4.57-90.78,31.23-112.44,74.56-9.65,21.27-14.56,43.48-7.91,66.18,12.15,39.7,37.17,74.14,71.15,97.73,51.98,36.87,119.93,41.36,176.24,11.33,59.26-31.45,100.57-95.7,95.83-164.62-8.48,33.46-22.01,61.38-48.02,82.07-24.06,40.82-66.82,68.13-111.78,72.27-50.73,4.8-96.81-14.99-128.46-53.71-14.62-16.88-25.91-35.58-29.93-58.34Z"/>
  <path d="M35.43,218.33c4.01,22.75,15.3,41.45,29.93,58.34,31.65,38.72,77.73,58.52,128.46,53.71,44.96-4.14,87.71-31.45,111.78-72.27,26-20.69,39.54-48.61,48.02-82.07,4.74,68.93-36.57,133.17-95.83,164.62-56.31,30.03-124.26,25.54-176.24-11.33-33.99-23.59-59.01-58.03-71.15-97.73-6.65-22.7-1.74-44.91,7.91-66.18,21.66-43.33,63.67-69.98,112.44-74.56l162.03-.16-47.83,71.25c-19.92,24.67-44.44,43.72-74.3,59.99l68.48-101.56-109.52-.09c-24.29,3.31-47.17,10.01-64.66,26.39-20.35,18.55-32.4,43.53-29.5,71.64Z"/>
  <path d="M187.54,140.84l-68.89,102.67,103.39-.1c36.22-2.48,69.11-17.49,88.06-48.03,17.04-26.27,16.07-57.08-.01-83.39-25.58-46.5-72.24-77.73-124.96-78.66-53.92-2.83-104.31,24.08-132.11,70.69-27.52,21.15-42.43,51.66-48.66,86.31C-.22,140.43,20.71,91.06,55.35,56.11,120.15-10.49,223.96-14.3,293.37,47.37c26.63,23.18,46.09,54.41,55.28,89.19,4.58,22.99-1.28,44.75-11.76,65.22-25.23,44.83-72.08,70.84-123.46,70.84l-148.81.77,53.7-79.18c18.92-22.29,42.86-39.82,69.23-53.36Z"/>
</svg>